<svg xmlns="http://www.w3.org/2000/svg" width="100" height="32" viewBox="0 0 100 32"><g fill="#F75454"><path d="M92.145 22.08c-.08-.466-.972-.982-.95-.912.482 1.75-1.42 5.722-2.718 5.722-1.5 0-1.747-2.343-1.747-4.493 0-2.117.655-5.435 1.977-5.435.888 0-.087 2.532-1.264 2.853-.338.094-.14.393.11.496.406.168.824.327 1.26.43.18.044.358.074.518.028 1.045-.294 2.267-2.37 2.267-3.337 0-1.53-3.3-2.485-4.896-2.307-.446.05-.765.13-1.02.417-2.067 2.32-3.577 11.35-4.827 11.35-.96 0-.126-9.21 1.157-10.224.526-.413.282-.562-.307-.9-.32-.183-2.266-1.038-2.804-.573-.23.198-.522 1.396-.75 3.06-.6 2.21-2.427 8.637-3.42 8.637-.164 0-.254-.885-.254-2.23 0-4.242.366-8.01.775-10.906 4.6.307 8.416.303 10.38-.272 6.11-1.79 4.486-5.79 3.12-7.002-.333-.296-.756-.43-.973-.43 0 .042.433.758.205 1.84-.275 1.313-1.703 3.04-6.372 3.335-1.847.117-3.87.16-5.986.15.36-2.08.676-3.372.714-3.592.025-.147.01-.274-.064-.377-.42-.584-2.13-1.604-3.095-1.604-.124 0-.492.344-.452.46.155.438.09.76.09 1.2 0 .546-.152 1.946-.342 3.86-7.152-.2-14.937-.903-20.68-1.516.226-1.156.395-1.864.424-2.023.027-.147.01-.274-.063-.377-.418-.584-2.13-1.604-3.094-1.604-.127 0-.494.344-.454.46.155.438.11.76.088 1.2-.027.65-.07 1.316-.125 1.988-1.796-.206-3.27-.384-4.203-.502 0 0 .895-1.564.62-3.252C44.614 3.34 42.257 2 39.155 2c-.01 0-.018 0-.026.002L39.01 2C30.637 2 15.438 9.714 9.676 9.714c-.805 0-1.45-.705-1.45-.705-.073-.06-.29-.07-.366-.018-.083.052-.525 4.37 2.98 4.37 1.95 0 6.042-1.736 10.675-3.734.107 1.412-.096 3.628-.833 7.705 0 0-3.268 1.237-5.356 1.278-.334.008-.637-.19-.875-.493-.034-.046-.467-.186-.458.197.015.63.438 3.06 2.58 3.02.95-.02 3.856-1.784 3.856-1.784.02.05-.793 7.625.158 9.507.394.783 2.32.955 2.975.943.228-.003.448-.255.4-.44-.647-2.455.648-9.303 1.994-11.763 0 0 .17-.202.166-.407-.01-.384-.457-1.602-.868-1.593-.08 0-.972.44-1.524.563.12-2.153 1.548-5.41 1.748-7.108.048-.39-.27-.767-.626-1.057 4.853-2.063 9.882-3.978 13.39-4.397 2.177-.26 5.36.066 5.657 2.338.195 1.5-.952 2.638-.952 2.638C37.62 8.16 30.7 7.37 30.2 10.154c-.36 2.004 2.54 3.633 5.687 3.458 2.455.113 6.096-1.207 7.96-3.747 1.133.153 2.723.385 4.63.662-.783 7.954-3.12 16.364-4.767 16.364-.563 0-.276-8.198.87-9.927.21-.743-1.396-1.702-2.542-1.702-.718-.146-2.217 3.317-2.668 5.362-.092-2.42-.547-5.06-1.315-5.302-.542-.17-1.107-.302-1.676-.395-.333-.055-.653-.083-.677.085-.16 1.05-1.668 2.35-1.977 2.593l-.117.01c-.06-.553-.485-.817-.984-1.026-.223-.095-.282-.234-.086-.404.207-.178.16-.356-.026-.513-.202-.17-1.95-1.16-2.684-1.16-1.407 0-3.204 4.688-3.204 7.763 0 3.06.268 5.045 1.524 6.194.834.673 1.862 1.007 2.9 1.345.33.108.538.032.713-.214 1.91-2.705 2.478-7.884 2.096-10.377-.016-.12.018-.265.087-.368.67-1.034 1.888-1.8 2.05-2.05.342 0 .502 3.615.478 4.974-.034 2.052-.487 4.206-1.136 6.187-.056.166-.085.307-.036.428.464 1.128 1.83 1.66 3.443 1.414.25-.038.33-.118.33-.33-.167-3.37 1.33-10.484 2-10.484.436 0-.78 5.277.07 8.72.072.325.25.67.442.925.452.602 1.547 1.103 2.606 1.216.414.016.51.016.552-.357.004-.256 2.006-6.04 2.72-7.78-.13 1.337.034 4.996.42 6.553.1.845 2.294 1.61 3.026 1.61.633 0 2.074-4.437 2.275-5.3.043.002 0 2.078.335 3.19.06.197.13.403.242.59.332.544 1.79 1.487 2.587 1.487.915 0 1.66-4.59 1.62-4.59 0 0 .03.036.04 0-.012.462.214 2.214.708 3.03.307.505 2.15 1.487 2.815 1.556.997 0 1.948-2.67 2.036-2.948.455 1.39 4.07 4.62 6.397 2.09.244-.264.415-.574.525-.913.422-1.016.883-2.5 1.292-3.94.02 1.415.087 2.81.218 4.137.102.845 2.296 1.61 3.025 1.61.685 0 1.99-4.568 2.77-7.553-.076 2.085.007 4.256.38 5.96.137.625 2.03 1.602 3.11 1.602.875 0 2.298-7.144 2.387-7.36.117.107-.017 4.412 1.98 5.967.736.576 1.52 1.072 2.475 1.307 1.595.39 4.52-4.775 4.013-7.72zM24.89 17.702c-.786 2.337-1.672 5.8-2.148 8.334l-.123.022c-.042-1.35.53-6.497.874-7.862 0 0 1.39-.775 1.396-.495zm8.217-7.478c.383-1.656 7.08-.776 8.963-.557-1.39 1.19-3.418 2.06-5.557 2.06-2.085 0-3.622-.568-3.406-1.503zM30.4 26.89c-1.178 0-1.714-4.364.013-7.988.06.676.76 1.863 1.52 1.863.063 0 .15.185.17.278.223 1.202-.248 5.848-1.703 5.848zm29.115-9.42c-.033.09-.248.19-.37.183-.346-.02-.44.137-.493.383-.33 1.49-1.46 8.855-2.245 8.855-.354 0-.45-2.04-.43-2.878.075-3.07 1.235-7.39 2.625-7.39.67 0 1.007.6.913.847zm1.82 9.42c-.747 0-.554-3.995-.267-5.593.13-.722.356-1.545.57-2.255.2-.81-.796-1.025-.827-1.143-.06-.214-.102-.556-.158-.77-.187-.69-.63-1.136-1.46-1.383-.915-.274-1.822-.527-2.787-.618-.52-.05-.857.143-1.103.527-1.165 1.674-2.856 11.233-4.683 11.233-.166 0-.256-.885-.256-2.23 0-5.772.677-10.667 1.217-13.683 6.02.87 13.893 1.954 20.694 2.545-.205 2.29-.403 4.994-.466 7.752-.407 1.402-.89 2.905-1.37 3.977-.44-1.752-1.368-3.41-1.578-3.792-.656-1.196-1.167-2.407-1.11-3.78.028-.596.086-1.195.455-1.736.053-.075.02-.246-.05-.32-.387-.433-1.85-.72-2.386-.444-.248.13-.486.345-.603.57-.39.736-.426 1.532-.284 2.31.198 1.072-.007 2.098-.298 3.125-.453 1.58-1.852 5.708-3.25 5.708zm2.626-1.167c.34-1.622 1.475-3.24 1.824-4.86.002-.007.02-.01.08-.038.356.732 2.605 4.45 1.24 5.856-.948.975-3.218-.596-3.143-.957z"/><path d="M82.86 9.906c.113.005.84.027.998-.082.953-.676 2.242-3.838 2.238-4.765.015-.216-.002-.334-.205-.458-.774-.393-1.927-.81-2.987-.993-.324-.057-.463.168-.355.454.464.35.438 4.147 0 5.44-.098.292 0 .39.312.402z"/></g></svg>